<?xml version="1.0" encoding="utf-8"?><svg xmlns="http://www.w3.org/2000/svg" xmlns:xlink="http://www.w3.org/1999/xlink" width="184px" height="184px" viewBox="0 0 100 100" preserveAspectRatio="xMidYMid" style="display:block;animation-play-state:paused" ><g transform="rotate(0 50 50)" style="animation-play-state:paused" ><rect x="37.5" y="15.5" rx="12.5" ry="20.5" width="25" height="41" fill="#000000" opacity="0.1" style="opacity:0.1;animation-play-state:paused" ></rect></g>
<g transform="rotate(36 50 50)" style="animation-play-state:paused" ><rect x="37.5" y="15.5" rx="12.5" ry="20.5" width="25" height="41" fill="#000000" opacity="0.2" style="opacity:0.2;animation-play-state:paused" ></rect></g>
<g transform="rotate(72 50 50)" style="animation-play-state:paused" ><rect x="37.5" y="15.5" rx="12.5" ry="20.5" width="25" height="41" fill="#000000" opacity="0.3" style="opacity:0.3;animation-play-state:paused" ></rect></g>
<g transform="rotate(108 50 50)" style="animation-play-state:paused" ><rect x="37.5" y="15.5" rx="12.5" ry="20.5" width="25" height="41" fill="#000000" opacity="0.4" style="opacity:0.4;animation-play-state:paused" ></rect></g>
<g transform="rotate(144 50 50)" style="animation-play-state:paused" ><rect x="37.5" y="15.5" rx="12.5" ry="20.5" width="25" height="41" fill="#000000" opacity="0.5" style="opacity:0.5;animation-play-state:paused" ></rect></g>
<g transform="rotate(180 50 50)" style="animation-play-state:paused" ><rect x="37.5" y="15.5" rx="12.5" ry="20.5" width="25" height="41" fill="#000000" opacity="0.6" style="opacity:0.6;animation-play-state:paused" ></rect></g>
<g transform="rotate(216 50 50)" style="animation-play-state:paused" ><rect x="37.5" y="15.5" rx="12.5" ry="20.5" width="25" height="41" fill="#000000" opacity="0.7" style="opacity:0.7;animation-play-state:paused" ></rect></g>
<g transform="rotate(252 50 50)" style="animation-play-state:paused" ><rect x="37.5" y="15.5" rx="12.5" ry="20.5" width="25" height="41" fill="#000000" opacity="0.8" style="opacity:0.8;animation-play-state:paused" ></rect></g>
<g transform="rotate(288 50 50)" style="animation-play-state:paused" ><rect x="37.5" y="15.5" rx="12.5" ry="20.5" width="25" height="41" fill="#000000" opacity="0.9" style="opacity:0.9;animation-play-state:paused" ></rect></g>
<g transform="rotate(324 50 50)" style="animation-play-state:paused" ><rect x="37.5" y="15.5" rx="12.5" ry="20.5" width="25" height="41" fill="#000000" opacity="1" style="animation-play-state:paused" ></rect></g><!-- generated by https://loading.io/ --></svg>